<svg id="Layer_1" data-name="Layer 1" xmlns="http://www.w3.org/2000/svg" viewBox="0 0 1129.82 366.22"><defs><style>.cls-1{fill:#42bb94;}.cls-2{fill:#070707;}</style></defs><path class="cls-1" d="M6636.71,7199.88c0-28.66.08-57.33-.1-86,0-4.25,1.4-6.72,5-8.79q75.09-42.87,150-86c4-2.32,6.94-2.23,10.88.07q74.68,43.55,149.59,86.73c3.74,2.16,5.29,4.66,5.28,9.14q-.24,86.51,0,173c0,4-1.36,6.38-4.82,8.36q-74,42.27-147.8,84.85c-5.64,3.26-9.84,3.15-15.47-.15q-73.09-42.83-146.57-85c-4.5-2.58-6.16-5.54-6.12-10.72C6636.83,7256.88,6636.71,7228.38,6636.71,7199.88ZM6791.89,7031c-2.13,1-3.48,1.58-4.72,2.29q-68.31,39.1-136.62,78.2c-2.73,1.56-4,3.21-4,6.58q.19,79.23.1,158.46c0,1.22.24,2.44.42,4.17,11.79-6.74,23-13.3,34.35-19.52,3.23-1.77,4.29-3.81,4.28-7.44-.14-37,0-74-.19-111,0-4.84,1.67-7.49,5.82-9.85,32.17-18.23,64.19-36.73,96.33-55,3.15-1.8,4.44-3.78,4.29-7.45-.29-7.32-.09-14.66-.09-22Zm10.22-.21v5.79c0,11.17.22,22.33-.12,33.49-.13,4.15,1.47,6.21,4.85,8.16,32.05,18.42,64,37.06,96.06,55.44,4.18,2.39,5.68,5.18,5.65,10-.18,36.81,0,73.63-.21,110.45,0,4.31,1.37,6.57,5,8.52,7.79,4.14,15.35,8.72,23,13.12l11,6.31v-6.21q0-77.72.1-155.43c0-4.18-1.25-6.46-4.94-8.58q-65.18-37.48-130.16-75.31C6809.26,7034.66,6806.09,7033,6802.11,7030.76Zm-150.34,258.75c1.53,1,2.2,1.48,2.91,1.89q69.78,40.47,139.64,80.8c1.52.88,4.53.58,6.18-.36q59.28-33.67,118.39-67.64c7.58-4.34,15.11-8.77,23.33-13.54-11.82-6.88-23-13.13-33.84-19.81-3.61-2.21-6.28-2.12-9.91,0-31,18-62.13,35.56-93,53.67-6.06,3.55-10.57,3.65-16.73,0-31.49-18.71-63.28-36.91-95-55.2-1.38-.79-3.73-1.52-4.86-.9C6676.65,7275.14,6664.6,7282.15,6651.77,7289.51Zm140.47,25.33c0-14.33-.14-27.76.09-41.17.06-3.54-1.25-5.36-4.19-7-16.06-9.14-32-18.52-48-27.67-3.43-2-4.86-4.4-4.82-8.42.18-18.31,0-36.63.17-54.94,0-3.68-1.18-5.65-4.34-7.4-10.33-5.74-20.48-11.8-30.71-17.72-1.35-.78-2.77-1.44-4.51-2.35-.17,1.4-.32,2-.32,2.67,0,34.8-.07,69.59.14,104.39,0,1.92,1.81,4.59,3.54,5.62,20.48,12.11,41.11,24,61.7,35.92Zm106.26-166.46c-13.22,7.62-25.63,14.67-37.86,22-1.24.75-1.93,3.32-2,5-.13,18.33-.2,36.66,0,55,0,4.35-1.21,7-5.15,9.18-15.87,8.81-31.52,18-47.33,26.93-2.94,1.66-4.33,3.5-4.13,7.05.33,6,.09,12,.09,18v22.54a11,11,0,0,0,2-.57q45.77-26.18,91.43-52.5a7,7,0,0,0,2.77-5.06c.29-8.49.13-17,.13-25.49Zm-5.27-8.51c-1.43-1-1.94-1.38-2.5-1.7q-44.92-26.06-89.83-52.14c-2.81-1.64-4.9-1.68-7.72,0-19,11.05-38.08,21.92-57.14,32.85-11.53,6.61-23.05,13.23-35.23,20.23,2.23,1.37,3.86,2.42,5.54,3.4,10.08,5.85,20.23,11.57,30.21,17.58,2.84,1.71,4.89,1.54,7.7-.1,15.8-9.24,31.81-18.15,47.6-27.42,3.82-2.24,6.79-2.08,10.55.15,15.74,9.35,31.63,18.45,47.54,27.52,1.56.89,4.15,1.86,5.38,1.18C6867.85,7154.53,6880.19,7147.34,6893.23,7139.87Zm-147.92,84.82c15-8.58,29-16.65,43.1-24.5,2.86-1.59,3.94-3.38,3.9-6.65-.17-15-.07-30-.09-45,0-1.25-.21-2.5-.38-4.45-15.26,8.74-30,17.13-44.62,25.64a4.37,4.37,0,0,0-1.83,3.16C6745.27,7189.85,6745.31,7206.81,6745.31,7224.69Zm103.51.31c0-17.23-.1-33.35.08-49.47,0-3.27-1-5.09-3.84-6.69-13.17-7.45-26.22-15.12-39.32-22.68-1.06-.61-2.24-1-3.89-1.71,0,14.91.49,29.2-.2,43.44-.36,7.49,1.91,11.59,8.64,15C6823.11,7209.52,6835.35,7217.2,6848.82,7225Zm-5.83,9.11c-.64-.94-.76-1.31-1-1.45-14.24-8.31-28.45-16.66-42.8-24.78-1.19-.67-3.53-.32-4.86.42-12.95,7.22-25.79,14.61-38.66,22-1.5.86-3,1.77-5.23,3.13,15.52,9,30.16,17.51,44.88,25.89a4.4,4.4,0,0,0,3.67-.06C6813.61,7251,6828.17,7242.59,6843,7234.11Z" transform="translate(-6636.59 -7017.39)"/><path class="cls-2" d="M7178.06,7297.51c-7.55,0-14.71.08-21.87-.09a4.89,4.89,0,0,1-3.53-1.87c-30.1-49.38-63.51-96.75-90.16-148.23-1.11-2.15-2.16-4.32-3.09-6.19v156.1h-21.55V7110.49c7.94,0,15.89-.08,23.84.1a4.86,4.86,0,0,1,3.45,2q42.09,67.78,84,135.7c3,4.87,5.2,10.23,7.59,15q-.82-75.89-1.68-152.48h23.05Z" transform="translate(-6636.59 -7017.39)"/><path class="cls-1" d="M7688.2,7179c10.3-18.16,20.28-35.8,30.32-53.41,4.7-8.24,9.59-16.37,14.24-24.64,1.35-2.41,2.82-3.6,5.8-3.52,8.47.24,17,.09,26.33.09-1.37,2.33-2.38,4.15-3.48,5.9q-27.77,44.47-55.62,88.91c-1.81,2.88-1.95,4.94-.1,7.95q29.31,47.92,58.31,96c.68,1.12,1.3,2.27,2.41,4.22-10,0-19.37.14-28.73-.15-1.27,0-2.83-2-3.66-3.41q-22.59-38.55-45-77.2c-.66-1.13-1.39-2.21-2.34-3.72a16.3,16.3,0,0,0-1.6,2q-21.6,39.39-43.1,78.84c-1.47,2.7-3,3.78-6.14,3.7-8.31-.22-16.63-.08-25.9-.08,1.25-2.25,2.12-3.94,3.1-5.56q28.13-46.59,56.33-93.15c1.76-2.89,1.82-5,0-8q-26.7-44.53-53.1-89.26c-1.25-2.1-2.44-4.24-4-7,9.95,0,19.2-.16,28.44.17,1.4.05,3.15,2.12,4,3.65q21,37.45,41.79,75C7687,7177.18,7687.53,7178,7688.2,7179Z" transform="translate(-6636.59 -7017.39)"/><path class="cls-2" d="M7538.46,7181.27v-80.55h24.83v196.39h-21.14c-.37-7-.76-14.37-1.2-22.68-2.48,3.38-4.17,6-6.17,8.36-21.14,25-62.42,23.49-83.11-3.1-12.53-16.09-16-34.79-14.71-54.63,1-15.06,5.18-29.08,14.34-41.35a57.06,57.06,0,0,1,61.22-21.25C7523.24,7165.35,7530.43,7170.41,7538.46,7181.27Zm.87,48.68-.86-.1c0-4.49.09-9,0-13.48-.39-17.08-11.21-31.25-27-35.46-16.25-4.34-33.21,2.12-41.52,17.19-11.35,20.57-11.75,42-1.37,63.11,7.1,14.39,20.93,21.26,37.38,19.14,15.46-2,26.1-10.9,30.36-25.82C7538.54,7246.68,7538.4,7238.16,7539.33,7230Z" transform="translate(-6636.59 -7017.39)"/><path class="cls-2" d="M7327.47,7234.56H7233.9c-.6,27.93,16.49,45.69,42.32,46.88,13.74.63,27.14-1.23,40.36-6.87,1.43,5.91,2.78,11.51,4.43,18.37-8,2-15.69,4.41-23.58,5.84-12.85,2.33-25.8,2.77-38.69-.1-22.77-5.07-38-18.78-44.75-40.94-6.35-20.75-5.24-41.51,3.67-61.42,12.66-28.33,42.73-42.24,72.52-33.58,20.74,6,31.24,21.51,36.11,41.47C7328.7,7214.09,7329.51,7224.16,7327.47,7234.56Zm-22.57-17.86c-.15-2.74-.18-5.2-.43-7.63-1.6-15-10.24-26.14-22.9-29.66-23.61-6.55-46.74,11.6-47.18,37.29Z" transform="translate(-6636.59 -7017.39)"/><path class="cls-2" d="M7358.26,7163.63h21v25.6l1.18.36c8.39-19.43,21.62-31.05,44.18-28.59v23c-29.62-3.93-41.69,18.71-41.93,42.32-.23,22,0,44,0,65.95v5.05h-24.42Z" transform="translate(-6636.59 -7017.39)"/></svg>